<?xml version="1.0" standalone="no"?>
<!DOCTYPE svg PUBLIC "-//W3C//DTD SVG 20010904//EN"
 "http://www.w3.org/TR/2001/REC-SVG-20010904/DTD/svg10.dtd">
<svg version="1.0" xmlns="http://www.w3.org/2000/svg"
 width="1240.000000pt" height="1242.000000pt" viewBox="0 0 1240.000000 1242.000000"
 preserveAspectRatio="xMidYMid meet">

<g transform="translate(0.000000,1242.000000) scale(0.100000,-0.100000)"
fill="#000000" stroke="none">
<path d="M4640 12394 c-183 -49 -438 -232 -710 -511 -148 -152 -200 -211 -279
-317 -25 -34 -48 -63 -51 -66 -7 -6 -120 -171 -135 -197 -6 -10 -27 -43 -46
-73 -173 -266 -437 -830 -550 -1170 -10 -30 -27 -82 -39 -115 -12 -33 -23 -67
-25 -75 -2 -8 -15 -51 -30 -95 -43 -135 -129 -444 -126 -457 0 -2 -6 -25 -15
-53 -13 -43 -47 -188 -60 -250 -2 -11 -13 -63 -24 -115 -11 -52 -25 -117 -30
-145 -5 -27 -11 -59 -13 -70 -6 -25 -20 -105 -22 -125 -1 -8 -14 -85 -28 -170
-14 -85 -29 -177 -32 -205 -3 -27 -8 -66 -11 -85 -15 -117 -26 -219 -34 -320
-6 -63 -12 -125 -15 -136 -5 -21 -12 -22 -192 -28 -244 -9 -492 -24 -618 -36
-179 -18 -278 -29 -365 -40 -47 -7 -100 -13 -119 -15 -59 -6 -121 -16 -276
-46 -27 -5 -95 -18 -150 -30 -55 -12 -118 -25 -140 -30 -22 -4 -71 -18 -110
-29 -38 -12 -79 -23 -90 -25 -33 -7 -179 -61 -245 -91 l-59 -26 32 -46 c40
-56 184 -172 300 -241 225 -135 653 -304 1012 -401 124 -34 149 -40 166 -44 8
-2 60 -16 115 -29 131 -34 234 -59 259 -62 19 -3 92 -18 165 -35 49 -11 139
-30 175 -36 73 -12 68 6 60 -212 -6 -194 5 -462 25 -632 6 -47 13 -100 15
-119 12 -107 33 -216 70 -375 9 -38 19 -78 21 -89 4 -23 6 -28 39 -142 31
-104 32 -107 80 -240 51 -138 115 -285 172 -396 26 -52 49 -97 51 -101 6 -13
-58 -9 -138 8 -41 9 -83 17 -94 20 -113 23 -476 149 -686 239 -147 63 -130 64
-124 -8 24 -264 122 -497 308 -728 94 -117 169 -190 298 -293 188 -150 352
-243 628 -357 69 -28 154 -64 190 -79 36 -15 121 -51 190 -80 69 -29 143 -61
165 -70 22 -10 69 -30 105 -45 36 -15 83 -35 105 -45 22 -10 252 -107 510
-215 259 -108 489 -206 512 -216 23 -10 44 -19 47 -19 3 0 29 -11 58 -24 29
-13 114 -49 188 -80 74 -32 149 -63 165 -71 17 -7 71 -30 120 -50 50 -20 104
-43 120 -50 17 -8 91 -39 165 -71 288 -120 448 -188 515 -217 39 -17 81 -30
95 -30 14 0 57 13 95 30 67 29 227 97 515 217 74 32 149 63 165 71 17 7 71 30
120 50 50 20 104 43 120 50 17 8 91 39 165 71 74 31 159 67 188 80 29 13 55
24 58 24 3 0 24 9 47 19 23 10 254 108 512 216 259 108 488 205 510 215 22 10
69 30 105 45 36 15 83 35 105 45 22 9 96 41 165 70 69 29 154 65 190 80 36 15
124 52 195 81 411 169 698 371 921 648 186 231 284 464 308 728 6 72 23 71
-124 8 -215 -92 -571 -216 -690 -240 -8 -2 -49 -10 -90 -19 -80 -17 -144 -21
-138 -8 2 4 25 49 51 101 57 111 121 258 172 396 48 133 49 136 80 240 33 114
35 119 39 142 2 11 12 51 21 89 37 159 58 268 70 375 2 19 9 72 15 119 20 170
31 438 25 632 -8 218 -13 200 60 212 36 6 126 25 175 36 73 17 146 32 165 35
25 3 128 28 259 62 55 13 107 27 115 29 17 4 42 10 166 44 359 97 787 266
1012 401 116 69 260 185 300 241 l32 46 -59 26 c-66 30 -212 84 -245 91 -11 2
-51 13 -90 25 -38 11 -88 25 -110 29 -22 5 -85 18 -140 30 -183 39 -344 67
-426 76 -19 2 -72 8 -119 15 -290 39 -594 62 -980 75 -181 6 -213 4 -300 -20
-137 -37 -302 -80 -405 -104 -202 -47 -231 -53 -250 -56 -11 -2 -40 -8 -65
-13 -60 -13 -242 -50 -283 -58 -17 -3 -56 -10 -84 -15 -29 -5 -79 -14 -110
-19 -81 -15 -184 -32 -208 -35 -11 -1 -39 -5 -63 -9 -48 -9 -55 -10 -177 -26
-49 -6 -121 -15 -160 -20 -194 -26 -272 -33 -520 -49 -202 -14 -215 -14 -195
-1 13 9 64 25 110 35 87 20 643 220 763 274 25 12 48 21 51 21 3 0 82 34 176
75 240 106 707 342 827 418 24 15 44 27 47 27 8 0 197 117 321 199 99 65 235
163 235 169 0 4 -5 36 -11 72 -6 36 -12 72 -14 80 -3 22 -17 102 -22 125 -2
11 -8 43 -13 70 -5 28 -19 93 -30 145 -11 52 -22 104 -24 115 -10 52 -39 175
-52 221 -8 28 -16 60 -18 70 -6 28 -22 91 -41 159 -36 133 -47 171 -55 195
-10 27 -64 202 -65 210 -2 12 -17 57 -25 75 -5 11 -21 56 -36 100 -147 438
-388 939 -618 1285 -159 240 -301 412 -498 606 -264 259 -485 413 -663 459
-78 20 -235 20 -317 -1 -117 -30 -243 -95 -478 -250 -69 -45 -145 -94 -170
-109 -73 -43 -262 -131 -310 -144 -25 -8 -56 -17 -70 -21 -111 -36 -308 -32
-450 9 -19 5 -46 13 -60 17 -32 9 -230 104 -290 139 -25 15 -101 64 -170 109
-235 155 -361 220 -478 250 -79 20 -247 20 -322 0z m-1180 -6551 c931 -353
1809 -590 2385 -644 72 -7 132 -14 134 -16 9 -6 -112 -152 -186 -225 -215
-211 -490 -356 -791 -417 -249 -51 -533 -52 -678 -2 -316 109 -655 451 -984
996 -80 133 -230 415 -230 433 0 9 11 7 38 -4 20 -9 161 -63 312 -121z m5752
-36 c-305 -584 -665 -1022 -988 -1203 -119 -66 -212 -92 -359 -100 -486 -24
-937 139 -1258 454 -75 74 -194 219 -186 226 2 1 63 8 134 15 447 41 1061 189
1771 426 265 88 815 289 914 334 25 11 47 16 48 11 2 -6 -32 -79 -76 -163z"/>
<path d="M2174 2680 c-44 -26 -191 -114 -329 -195 -137 -82 -289 -172 -337
-202 -48 -29 -90 -53 -93 -53 -3 0 -29 -15 -58 -34 -28 -19 -85 -53 -126 -76
l-74 -43 99 -39 c54 -21 113 -45 129 -52 30 -14 400 -166 565 -233 47 -19 99
-41 115 -48 17 -7 104 -44 195 -81 285 -116 662 -271 715 -294 22 -10 72 -30
110 -45 39 -15 84 -33 100 -41 29 -13 97 -41 293 -119 48 -20 96 -40 107 -45
27 -13 170 -71 400 -165 50 -20 104 -42 120 -50 29 -12 422 -174 535 -220 30
-12 233 -95 450 -185 217 -89 432 -178 478 -196 46 -19 103 -43 127 -54 24
-11 48 -20 52 -20 4 -1 26 -9 48 -20 22 -11 43 -19 48 -20 4 0 26 -9 50 -19
62 -29 237 -101 275 -114 23 -7 41 -7 65 0 37 13 212 85 274 114 24 10 46 19
50 19 5 1 26 9 48 20 22 11 44 19 48 20 4 0 28 9 52 20 24 11 81 35 127 54 46
18 261 107 478 196 217 90 420 173 450 185 113 46 506 208 535 220 17 8 71 30
120 50 230 94 373 152 400 165 11 5 61 26 110 46 195 78 261 105 290 118 17 8
62 26 100 41 39 15 88 35 110 45 53 23 430 178 715 294 91 37 179 74 195 81
17 7 68 29 115 48 165 67 535 219 565 233 17 7 75 31 129 52 l99 39 -74 43
c-41 23 -98 57 -126 76 -29 19 -55 34 -58 34 -3 0 -45 24 -93 53 -48 30 -199
120 -337 202 -137 81 -285 169 -329 195 l-79 48 -56 -23 c-31 -13 -159 -66
-286 -120 -126 -53 -246 -104 -265 -112 -19 -8 -48 -20 -65 -28 -16 -7 -86
-36 -155 -65 -69 -29 -201 -85 -295 -125 -93 -40 -226 -96 -295 -125 -69 -28
-138 -58 -155 -65 -32 -14 -97 -42 -290 -123 -66 -27 -196 -82 -290 -122 -93
-39 -224 -94 -290 -122 -66 -28 -144 -61 -173 -74 -29 -13 -55 -24 -58 -24 -3
0 -24 -8 -47 -19 -41 -18 -130 -56 -417 -176 -157 -66 -326 -138 -390 -165
-244 -105 -405 -170 -420 -170 -15 0 -176 65 -420 170 -64 27 -233 99 -390
165 -287 120 -376 158 -417 176 -23 11 -44 19 -47 19 -3 0 -29 11 -58 24 -29
13 -107 46 -173 74 -66 28 -196 83 -290 122 -93 40 -224 95 -290 122 -193 81
-258 109 -290 123 -16 7 -86 37 -155 65 -69 29 -201 85 -295 125 -93 40 -226
96 -295 125 -69 29 -138 58 -155 65 -16 8 -46 20 -65 28 -19 8 -138 59 -265
112 -126 54 -255 107 -286 120 l-56 23 -79 -48z"/>
</g>
</svg>
